<?xml version="1.0" encoding="utf-8" ?>
<svg baseProfile="full" height="120px" version="1.1" width="800px" xmlns="http://www.w3.org/2000/svg" xmlns:ev="http://www.w3.org/2001/xml-events" xmlns:xlink="http://www.w3.org/1999/xlink"><defs /><rect fill="#ebedf0" height="12" width="12" x="20" y="48" /><rect fill="#ebedf0" height="12" width="12" x="20" y="62" /><rect fill="#ebedf0" height="12" width="12" x="20" y="76" /><rect fill="#ebedf0" height="12" width="12" x="20" y="90" /><rect fill="#ebedf0" height="12" width="12" x="20" y="104" /><rect fill="#fce2b3" height="12" width="12" x="20" y="20" /><rect fill="#ebedf0" height="12" width="12" x="20" y="34" /><rect fill="#ebedf0" height="12" width="12" x="34" y="48" /><rect fill="#fce2b3" height="12" width="12" x="34" y="62" /><rect fill="#ebedf0" height="12" width="12" x="34" y="76" /><rect fill="#ebedf0" height="12" width="12" x="34" y="90" /><rect fill="#ebedf0" height="12" width="12" x="34" y="104" /><rect fill="#fce2b3" height="12" width="12" x="34" y="104" /><rect fill="#ebedf0" height="12" width="12" x="48" y="20" /><rect fill="#ebedf0" height="12" width="12" x="62" y="48" /><rect fill="#ebedf0" height="12" width="12" x="118" y="104" /><rect fill="#ebedf0" height="12" width="12" x="132" y="20" /><rect fill="#ebedf0" height="12" width="12" x="272" y="62" /><rect fill="#ebedf0" height="12" width="12" x="272" y="76" /><rect fill="#ebedf0" height="12" width="12" x="272" y="90" /><rect fill="#ebedf0" height="12" width="12" x="272" y="104" /><rect fill="#ebedf0" height="12" width="12" x="286" y="34" /><rect fill="#ebedf0" height="12" width="12" x="286" y="48" /><rect fill="#ebedf0" height="12" width="12" x="286" y="76" /><rect fill="#ebedf0" height="12" width="12" x="300" y="48" /><rect fill="#fce2b3" height="12" width="12" x="300" y="62" /><rect fill="#ebedf0" height="12" width="12" x="314" y="20" /><rect fill="#ebedf0" height="12" width="12" x="314" y="34" /><rect fill="#ebedf0" height="12" width="12" x="314" y="76" /><rect fill="#ebedf0" height="12" width="12" x="314" y="90" /><rect fill="#ebedf0" height="12" width="12" x="314" y="104" /><rect fill="#ebedf0" height="12" width="12" x="328" y="62" /><rect fill="#ebedf0" height="12" width="12" x="328" y="76" /><rect fill="#ebedf0" height="12" width="12" x="328" y="90" /><rect fill="#ebedf0" height="12" width="12" x="328" y="104" /><rect fill="#ebedf0" height="12" width="12" x="342" y="34" /><rect fill="#ebedf0" height="12" width="12" x="342" y="62" /><rect fill="#ebedf0" height="12" width="12" x="342" y="76" /><rect fill="#ebedf0" height="12" width="12" x="342" y="90" /><rect fill="#ebedf0" height="12" width="12" x="356" y="48" /><rect fill="#ebedf0" height="12" width="12" x="356" y="62" /><rect fill="#ebedf0" height="12" width="12" x="370" y="48" /><rect fill="#ebedf0" height="12" width="12" x="384" y="90" /><rect fill="#ebedf0" height="12" width="12" x="398" y="90" /><rect fill="#ebedf0" height="12" width="12" x="398" y="104" /><rect fill="#fce2b3" height="12" width="12" x="412" y="20" /><rect fill="#fce2b3" height="12" width="12" x="412" y="34" /><rect fill="#FFA116" height="12" width="12" x="412" y="48" /><rect fill="#ebedf0" height="12" width="12" x="412" y="62" /><rect fill="#ebedf0" height="12" width="12" x="412" y="76" /><rect fill="#ebedf0" height="12" width="12" x="412" y="104" /><rect fill="#ebedf0" height="12" width="12" x="608" y="104" /><rect fill="#ebedf0" height="12" width="12" x="622" y="62" /><rect fill="#ebedf0" height="12" width="12" x="622" y="90" /><rect fill="#ebedf0" height="12" width="12" x="622" y="104" /><rect fill="#ebedf0" height="12" width="12" x="636" y="20" /><rect fill="#ebedf0" height="12" width="12" x="636" y="48" /><rect fill="#ebedf0" height="12" width="12" x="692" y="90" /><rect fill="#fce2b3" height="12" width="12" x="692" y="104" /><rect fill="#ebedf0" height="12" width="12" x="706" y="20" /><rect fill="#fce2b3" height="12" width="12" x="706" y="34" /><rect fill="#ebedf0" height="12" width="12" x="706" y="48" /><rect fill="#ebedf0" height="12" width="12" x="706" y="62" /><rect fill="#ebedf0" height="12" width="12" x="706" y="76" /><rect fill="#fce2b3" height="12" width="12" x="706" y="90" /><rect fill="#fce2b3" height="12" width="12" x="706" y="104" /><rect fill="#fcc78d" height="12" width="12" x="720" y="20" /><rect fill="#fcc78d" height="12" width="12" x="720" y="34" /><rect fill="#fce2b3" height="12" width="12" x="720" y="48" /><rect fill="#fce2b3" height="12" width="12" x="720" y="62" /><rect fill="#ebedf0" height="12" width="12" x="720" y="76" /><rect fill="#ebedf0" height="12" width="12" x="720" y="90" /><rect fill="#ebedf0" height="12" width="12" x="720" y="104" /><rect fill="#ebedf0" height="12" width="12" x="734" y="20" /><rect fill="#ebedf0" height="12" width="12" x="734" y="34" /><rect fill="#fce2b3" height="12" width="12" x="734" y="48" /><rect fill="#ebedf0" height="12" width="12" x="734" y="62" /><rect fill="#ebedf0" height="12" width="12" x="734" y="76" /><rect fill="#ebedf0" height="12" width="12" x="734" y="90" /><rect fill="#ebedf0" height="12" width="12" x="734" y="104" /><rect fill="#ebedf0" height="12" width="12" x="748" y="20" /><rect fill="#ebedf0" height="12" width="12" x="748" y="34" /></svg>