<?xml version="1.0" encoding="utf-8" ?>
<svg baseProfile="full" height="150px" version="1.1" width="980px" xmlns="http://www.w3.org/2000/svg" xmlns:ev="http://www.w3.org/2001/xml-events" xmlns:xlink="http://www.w3.org/1999/xlink"><defs /><rect fill="#353839" height="12" rx="2" ry="2" width="12" x="34" y="34" /><rect fill="#353839" height="12" rx="2" ry="2" width="12" x="34" y="48" /><rect fill="#353839" height="12" rx="2" ry="2" width="12" x="34" y="62" /><rect fill="#353839" height="12" rx="2" ry="2" width="12" x="34" y="76" /><rect fill="#353839" height="12" rx="2" ry="2" width="12" x="34" y="90" /><rect fill="#fdecc8" height="12" rx="2" ry="2" width="12" x="34" y="104" /><rect fill="#353839" height="12" rx="2" ry="2" width="12" x="48" y="20" /><rect fill="#353839" height="12" rx="2" ry="2" width="12" x="48" y="34" /><rect fill="#353839" height="12" rx="2" ry="2" width="12" x="48" y="48" /><rect fill="#353839" height="12" rx="2" ry="2" width="12" x="48" y="62" /><rect fill="#353839" height="12" rx="2" ry="2" width="12" x="48" y="76" /><rect fill="#353839" height="12" rx="2" ry="2" width="12" x="48" y="90" /><rect fill="#FFA116" height="12" rx="2" ry="2" width="12" x="48" y="104" /><rect fill="#fbc98a" height="12" rx="2" ry="2" width="12" x="62" y="20" /><rect fill="#FFA116" height="12" rx="2" ry="2" width="12" x="62" y="34" /><rect fill="#FFA116" height="12" rx="2" ry="2" width="12" x="62" y="48" /><rect fill="#FFA116" height="12" rx="2" ry="2" width="12" x="62" y="62" /><rect fill="#fdecc8" height="12" rx="2" ry="2" width="12" x="62" y="76" /><rect fill="#fbc98a" height="12" rx="2" ry="2" width="12" x="62" y="90" /><rect fill="#353839" height="12" rx="2" ry="2" width="12" x="62" y="104" /><rect fill="#fbc98a" height="12" rx="2" ry="2" width="12" x="76" y="20" /><rect fill="#353839" height="12" rx="2" ry="2" width="12" x="76" y="34" /><rect fill="#353839" height="12" rx="2" ry="2" width="12" x="76" y="48" /><rect fill="#353839" height="12" rx="2" ry="2" width="12" x="76" y="62" /><rect fill="#353839" height="12" rx="2" ry="2" width="12" x="76" y="76" /><rect fill="#353839" height="12" rx="2" ry="2" width="12" x="76" y="90" /><rect fill="#353839" height="12" rx="2" ry="2" width="12" x="76" y="104" /><rect fill="#353839" height="12" rx="2" ry="2" width="12" x="90" y="20" /><rect fill="#353839" height="12" rx="2" ry="2" width="12" x="90" y="34" /><rect fill="#353839" height="12" rx="2" ry="2" width="12" x="90" y="48" /><rect fill="#353839" height="12" rx="2" ry="2" width="12" x="90" y="62" /><rect fill="#353839" height="12" rx="2" ry="2" width="12" x="104" y="76" /><rect fill="#353839" height="12" rx="2" ry="2" width="12" x="104" y="90" /><rect fill="#353839" height="12" rx="2" ry="2" width="12" x="104" y="104" /><rect fill="#353839" height="12" rx="2" ry="2" width="12" x="118" y="20" /><rect fill="#353839" height="12" rx="2" ry="2" width="12" x="118" y="34" /><rect fill="#353839" height="12" rx="2" ry="2" width="12" x="118" y="48" /><rect fill="#353839" height="12" rx="2" ry="2" width="12" x="118" y="62" /><rect fill="#353839" height="12" rx="2" ry="2" width="12" x="118" y="76" /><rect fill="#353839" height="12" rx="2" ry="2" width="12" x="118" y="90" /><rect fill="#353839" height="12" rx="2" ry="2" width="12" x="118" y="104" /><rect fill="#353839" height="12" rx="2" ry="2" width="12" x="132" y="20" /><rect fill="#353839" height="12" rx="2" ry="2" width="12" x="132" y="34" /><rect fill="#353839" height="12" rx="2" ry="2" width="12" x="132" y="48" /><rect fill="#353839" height="12" rx="2" ry="2" width="12" x="132" y="62" /><rect fill="#353839" height="12" rx="2" ry="2" width="12" x="132" y="76" /><rect fill="#353839" height="12" rx="2" ry="2" width="12" x="132" y="90" /><rect fill="#353839" height="12" rx="2" ry="2" width="12" x="132" y="104" /><rect fill="#353839" height="12" rx="2" ry="2" width="12" x="146" y="20" /><rect fill="#353839" height="12" rx="2" ry="2" width="12" x="146" y="34" /><rect fill="#353839" height="12" rx="2" ry="2" width="12" x="146" y="48" /><rect fill="#353839" height="12" rx="2" ry="2" width="12" x="146" y="62" /><rect fill="#353839" height="12" rx="2" ry="2" width="12" x="146" y="76" /><rect fill="#353839" height="12" rx="2" ry="2" width="12" x="146" y="90" /><rect fill="#353839" height="12" rx="2" ry="2" width="12" x="146" y="104" /><rect fill="#353839" height="12" rx="2" ry="2" width="12" x="160" y="20" /><rect fill="#353839" height="12" rx="2" ry="2" width="12" x="160" y="34" /><rect fill="#353839" height="12" rx="2" ry="2" width="12" x="160" y="48" /><rect fill="#353839" height="12" rx="2" ry="2" width="12" x="160" y="62" /><rect fill="#353839" height="12" rx="2" ry="2" width="12" x="160" y="76" /><rect fill="#353839" height="12" rx="2" ry="2" width="12" x="160" y="90" /><rect fill="#353839" height="12" rx="2" ry="2" width="12" x="160" y="104" /><rect fill="#353839" height="12" rx="2" ry="2" width="12" x="188" y="20" /><rect fill="#353839" height="12" rx="2" ry="2" width="12" x="188" y="34" /><rect fill="#353839" height="12" rx="2" ry="2" width="12" x="188" y="48" /><rect fill="#353839" height="12" rx="2" ry="2" width="12" x="188" y="62" /><rect fill="#353839" height="12" rx="2" ry="2" width="12" x="188" y="76" /><rect fill="#353839" height="12" rx="2" ry="2" width="12" x="188" y="90" /><rect fill="#353839" height="12" rx="2" ry="2" width="12" x="188" y="104" /><rect fill="#353839" height="12" rx="2" ry="2" width="12" x="202" y="20" /><rect fill="#353839" height="12" rx="2" ry="2" width="12" x="202" y="34" /><rect fill="#353839" height="12" rx="2" ry="2" width="12" x="202" y="48" /><rect fill="#353839" height="12" rx="2" ry="2" width="12" x="202" y="62" /><rect fill="#353839" height="12" rx="2" ry="2" width="12" x="202" y="76" /><rect fill="#353839" height="12" rx="2" ry="2" width="12" x="202" y="90" /><rect fill="#353839" height="12" rx="2" ry="2" width="12" x="202" y="104" /><rect fill="#353839" height="12" rx="2" ry="2" width="12" x="216" y="20" /><rect fill="#353839" height="12" rx="2" ry="2" width="12" x="216" y="34" /><rect fill="#353839" height="12" rx="2" ry="2" width="12" x="216" y="48" /><rect fill="#353839" height="12" rx="2" ry="2" width="12" x="216" y="62" /><rect fill="#353839" height="12" rx="2" ry="2" width="12" x="216" y="76" /><rect fill="#353839" height="12" rx="2" ry="2" width="12" x="216" y="90" /><rect fill="#353839" height="12" rx="2" ry="2" width="12" x="216" y="104" /><rect fill="#353839" height="12" rx="2" ry="2" width="12" x="230" y="20" /><rect fill="#353839" height="12" rx="2" ry="2" width="12" x="230" y="34" /><rect fill="#353839" height="12" rx="2" ry="2" width="12" x="230" y="48" /><rect fill="#353839" height="12" rx="2" ry="2" width="12" x="230" y="62" /><rect fill="#353839" height="12" rx="2" ry="2" width="12" x="230" y="76" /><rect fill="#353839" height="12" rx="2" ry="2" width="12" x="230" y="90" /><rect fill="#353839" height="12" rx="2" ry="2" width="12" x="230" y="104" /><rect fill="#353839" height="12" rx="2" ry="2" width="12" x="244" y="20" /><rect fill="#353839" height="12" rx="2" ry="2" width="12" x="244" y="34" /><rect fill="#353839" height="12" rx="2" ry="2" width="12" x="258" y="48" /><rect fill="#353839" height="12" rx="2" ry="2" width="12" x="258" y="62" /><rect fill="#353839" height="12" rx="2" ry="2" width="12" x="258" y="76" /><rect fill="#353839" height="12" rx="2" ry="2" width="12" x="258" y="90" /><rect fill="#353839" height="12" rx="2" ry="2" width="12" x="258" y="104" /><rect fill="#353839" height="12" rx="2" ry="2" width="12" x="272" y="20" /><rect fill="#353839" height="12" rx="2" ry="2" width="12" x="272" y="34" /><rect fill="#353839" height="12" rx="2" ry="2" width="12" x="272" y="48" /><rect fill="#353839" height="12" rx="2" ry="2" width="12" x="272" y="62" /><rect fill="#353839" height="12" rx="2" ry="2" width="12" x="272" y="76" /><rect fill="#353839" height="12" rx="2" ry="2" width="12" x="272" y="90" /><rect fill="#353839" height="12" rx="2" ry="2" width="12" x="272" y="104" /><rect fill="#353839" height="12" rx="2" ry="2" width="12" x="286" y="20" /><rect fill="#353839" height="12" rx="2" ry="2" width="12" x="286" y="34" /><rect fill="#353839" height="12" rx="2" ry="2" width="12" x="286" y="48" /><rect fill="#353839" height="12" rx="2" ry="2" width="12" x="286" y="62" /><rect fill="#353839" height="12" rx="2" ry="2" width="12" x="286" y="76" /><rect fill="#353839" height="12" rx="2" ry="2" width="12" x="286" y="90" /><rect fill="#353839" height="12" rx="2" ry="2" width="12" x="286" y="104" /><rect fill="#353839" height="12" rx="2" ry="2" width="12" x="300" y="20" /><rect fill="#353839" height="12" rx="2" ry="2" width="12" x="300" y="34" /><rect fill="#353839" height="12" rx="2" ry="2" width="12" x="300" y="48" /><rect fill="#353839" height="12" rx="2" ry="2" width="12" x="300" y="62" /><rect fill="#353839" height="12" rx="2" ry="2" width="12" x="300" y="76" /><rect fill="#353839" height="12" rx="2" ry="2" width="12" x="300" y="90" /><rect fill="#353839" height="12" rx="2" ry="2" width="12" x="300" y="104" /><rect fill="#fdecc8" height="12" rx="2" ry="2" width="12" x="314" y="20" /><rect fill="#353839" height="12" rx="2" ry="2" width="12" x="314" y="34" /><rect fill="#353839" height="12" rx="2" ry="2" width="12" x="314" y="48" /><rect fill="#353839" height="12" rx="2" ry="2" width="12" x="314" y="62" /><rect fill="#fbc98a" height="12" rx="2" ry="2" width="12" x="314" y="76" /><rect fill="#353839" height="12" rx="2" ry="2" width="12" x="328" y="90" /><rect fill="#fbc98a" height="12" rx="2" ry="2" width="12" x="328" y="104" /><rect fill="#fbc98a" height="12" rx="2" ry="2" width="12" x="342" y="20" /><rect fill="#fdecc8" height="12" rx="2" ry="2" width="12" x="342" y="34" /><rect fill="#353839" height="12" rx="2" ry="2" width="12" x="342" y="48" /><rect fill="#fdecc8" height="12" rx="2" ry="2" width="12" x="342" y="62" /><rect fill="#353839" height="12" rx="2" ry="2" width="12" x="342" y="76" /><rect fill="#353839" height="12" rx="2" ry="2" width="12" x="342" y="90" /><rect fill="#353839" height="12" rx="2" ry="2" width="12" x="342" y="104" /><rect fill="#353839" height="12" rx="2" ry="2" width="12" x="356" y="20" /><rect fill="#353839" height="12" rx="2" ry="2" width="12" x="356" y="34" /><rect fill="#353839" height="12" rx="2" ry="2" width="12" x="356" y="48" /><rect fill="#353839" height="12" rx="2" ry="2" width="12" x="356" y="62" /><rect fill="#353839" height="12" rx="2" ry="2" width="12" x="356" y="76" /><rect fill="#353839" height="12" rx="2" ry="2" width="12" x="356" y="90" /><rect fill="#353839" height="12" rx="2" ry="2" width="12" x="356" y="104" /><rect fill="#353839" height="12" rx="2" ry="2" width="12" x="370" y="20" /><rect fill="#353839" height="12" rx="2" ry="2" width="12" x="370" y="34" /><rect fill="#353839" height="12" rx="2" ry="2" width="12" x="370" y="48" /><rect fill="#353839" height="12" rx="2" ry="2" width="12" x="370" y="62" /><rect fill="#353839" height="12" rx="2" ry="2" width="12" x="370" y="76" /><rect fill="#353839" height="12" rx="2" ry="2" width="12" x="370" y="90" /><rect fill="#353839" height="12" rx="2" ry="2" width="12" x="370" y="104" /><rect fill="#353839" height="12" rx="2" ry="2" width="12" x="384" y="20" /><rect fill="#353839" height="12" rx="2" ry="2" width="12" x="384" y="34" /><rect fill="#353839" height="12" rx="2" ry="2" width="12" x="384" y="48" /><rect fill="#353839" height="12" rx="2" ry="2" width="12" x="384" y="62" /><rect fill="#353839" height="12" rx="2" ry="2" width="12" x="384" y="76" /><rect fill="#353839" height="12" rx="2" ry="2" width="12" x="384" y="90" /><rect fill="#353839" height="12" rx="2" ry="2" width="12" x="384" y="104" /><rect fill="#353839" height="12" rx="2" ry="2" width="12" x="412" y="20" /><rect fill="#353839" height="12" rx="2" ry="2" width="12" x="412" y="34" /><rect fill="#353839" height="12" rx="2" ry="2" width="12" x="412" y="48" /><rect fill="#353839" height="12" rx="2" ry="2" width="12" x="412" y="62" /><rect fill="#353839" height="12" rx="2" ry="2" width="12" x="412" y="76" /><rect fill="#353839" height="12" rx="2" ry="2" width="12" x="412" y="90" /><rect fill="#fbc98a" height="12" rx="2" ry="2" width="12" x="412" y="104" /><rect fill="#FFA116" height="12" rx="2" ry="2" width="12" x="426" y="20" /><rect fill="#FFA116" height="12" rx="2" ry="2" width="12" x="426" y="34" /><rect fill="#FFA116" height="12" rx="2" ry="2" width="12" x="426" y="48" /><rect fill="#fdecc8" height="12" rx="2" ry="2" width="12" x="426" y="62" /><rect fill="#fbc98a" height="12" rx="2" ry="2" width="12" x="426" y="76" /><rect fill="#FFA116" height="12" rx="2" ry="2" width="12" x="426" y="90" /><rect fill="#FFA116" height="12" rx="2" ry="2" width="12" x="426" y="104" /><rect fill="#FFA116" height="12" rx="2" ry="2" width="12" x="440" y="20" /><rect fill="#FFA116" height="12" rx="2" ry="2" width="12" x="440" y="34" /><rect fill="#FFA116" height="12" rx="2" ry="2" width="12" x="440" y="48" /><rect fill="#FFA116" height="12" rx="2" ry="2" width="12" x="440" y="62" /><rect fill="#FFA116" height="12" rx="2" ry="2" width="12" x="440" y="76" /><rect fill="#fbc98a" height="12" rx="2" ry="2" width="12" x="440" y="90" /><rect fill="#fbc98a" height="12" rx="2" ry="2" width="12" x="440" y="104" /><rect fill="#fbc98a" height="12" rx="2" ry="2" width="12" x="454" y="20" /><rect fill="#fdecc8" height="12" rx="2" ry="2" width="12" x="454" y="34" /><rect fill="#fdecc8" height="12" rx="2" ry="2" width="12" x="454" y="48" /><rect fill="#FFA116" height="12" rx="2" ry="2" width="12" x="454" y="62" /><rect fill="#fbc98a" height="12" rx="2" ry="2" width="12" x="454" y="76" /><rect fill="#FFA116" height="12" rx="2" ry="2" width="12" x="454" y="90" /><rect fill="#fbc98a" height="12" rx="2" ry="2" width="12" x="454" y="104" /><rect fill="#fbc98a" height="12" rx="2" ry="2" width="12" x="468" y="20" /><rect fill="#FFA116" height="12" rx="2" ry="2" width="12" x="468" y="34" /><rect fill="#fdecc8" height="12" rx="2" ry="2" width="12" x="468" y="48" /><rect fill="#fbc98a" height="12" rx="2" ry="2" width="12" x="482" y="62" /><rect fill="#fbc98a" height="12" rx="2" ry="2" width="12" x="482" y="76" /><rect fill="#fbc98a" height="12" rx="2" ry="2" width="12" x="482" y="90" /><rect fill="#fdecc8" height="12" rx="2" ry="2" width="12" x="482" y="104" /><rect fill="#fdecc8" height="12" rx="2" ry="2" width="12" x="496" y="20" /><rect fill="#FFA116" height="12" rx="2" ry="2" width="12" x="496" y="34" /><rect fill="#fbc98a" height="12" rx="2" ry="2" width="12" x="496" y="48" /><rect fill="#fdecc8" height="12" rx="2" ry="2" width="12" x="496" y="62" /><rect fill="#FFA116" height="12" rx="2" ry="2" width="12" x="496" y="76" /><rect fill="#fdecc8" height="12" rx="2" ry="2" width="12" x="496" y="90" /><rect fill="#fbc98a" height="12" rx="2" ry="2" width="12" x="496" y="104" /><rect fill="#fdecc8" height="12" rx="2" ry="2" width="12" x="510" y="20" /><rect fill="#FFA116" height="12" rx="2" ry="2" width="12" x="510" y="34" /><rect fill="#fbc98a" height="12" rx="2" ry="2" width="12" x="510" y="48" /><rect fill="#fbc98a" height="12" rx="2" ry="2" width="12" x="510" y="62" /><rect fill="#fbc98a" height="12" rx="2" ry="2" width="12" x="510" y="76" /><rect fill="#FFA116" height="12" rx="2" ry="2" width="12" x="510" y="90" /><rect fill="#fdecc8" height="12" rx="2" ry="2" width="12" x="510" y="104" /><rect fill="#fbc98a" height="12" rx="2" ry="2" width="12" x="524" y="20" /><rect fill="#fbc98a" height="12" rx="2" ry="2" width="12" x="524" y="34" /><rect fill="#FFA116" height="12" rx="2" ry="2" width="12" x="524" y="48" /><rect fill="#fbc98a" height="12" rx="2" ry="2" width="12" x="524" y="62" /><rect fill="#FFA116" height="12" rx="2" ry="2" width="12" x="524" y="76" /><rect fill="#fdecc8" height="12" rx="2" ry="2" width="12" x="524" y="90" /><rect fill="#fbc98a" height="12" rx="2" ry="2" width="12" x="524" y="104" /><rect fill="#fdecc8" height="12" rx="2" ry="2" width="12" x="538" y="20" /><rect fill="#fbc98a" height="12" rx="2" ry="2" width="12" x="538" y="34" /><rect fill="#fbc98a" height="12" rx="2" ry="2" width="12" x="538" y="48" /><rect fill="#fdecc8" height="12" rx="2" ry="2" width="12" x="538" y="62" /><rect fill="#fdecc8" height="12" rx="2" ry="2" width="12" x="538" y="76" /><rect fill="#fdecc8" height="12" rx="2" ry="2" width="12" x="538" y="90" /><rect fill="#fbc98a" height="12" rx="2" ry="2" width="12" x="552" y="104" /><rect fill="#fdecc8" height="12" rx="2" ry="2" width="12" x="566" y="20" /><rect fill="#fbc98a" height="12" rx="2" ry="2" width="12" x="566" y="34" /><rect fill="#fbc98a" height="12" rx="2" ry="2" width="12" x="566" y="48" /><rect fill="#fbc98a" height="12" rx="2" ry="2" width="12" x="566" y="62" /><rect fill="#FFA116" height="12" rx="2" ry="2" width="12" x="566" y="76" /><rect fill="#fbc98a" height="12" rx="2" ry="2" width="12" x="566" y="90" /><rect fill="#fbc98a" height="12" rx="2" ry="2" width="12" x="566" y="104" /><rect fill="#fbc98a" height="12" rx="2" ry="2" width="12" x="580" y="20" /><rect fill="#fdecc8" height="12" rx="2" ry="2" width="12" x="580" y="34" /><rect fill="#fdecc8" height="12" rx="2" ry="2" width="12" x="580" y="48" /><rect fill="#fbc98a" height="12" rx="2" ry="2" width="12" x="580" y="62" /><rect fill="#FFA116" height="12" rx="2" ry="2" width="12" x="580" y="76" /><rect fill="#fdecc8" height="12" rx="2" ry="2" width="12" x="580" y="90" /><rect fill="#fbc98a" height="12" rx="2" ry="2" width="12" x="580" y="104" /><rect fill="#fdecc8" height="12" rx="2" ry="2" width="12" x="594" y="20" /><rect fill="#fdecc8" height="12" rx="2" ry="2" width="12" x="594" y="34" /><rect fill="#353839" height="12" rx="2" ry="2" width="12" x="594" y="48" /><rect fill="#fdecc8" height="12" rx="2" ry="2" width="12" x="594" y="62" /><rect fill="#fdecc8" height="12" rx="2" ry="2" width="12" x="594" y="76" /><rect fill="#fbc98a" height="12" rx="2" ry="2" width="12" x="594" y="90" /><rect fill="#fdecc8" height="12" rx="2" ry="2" width="12" x="594" y="104" /><rect fill="#fdecc8" height="12" rx="2" ry="2" width="12" x="608" y="20" /><rect fill="#fdecc8" height="12" rx="2" ry="2" width="12" x="608" y="34" /><rect fill="#fdecc8" height="12" rx="2" ry="2" width="12" x="608" y="48" /><rect fill="#353839" height="12" rx="2" ry="2" width="12" x="608" y="62" /><rect fill="#fdecc8" height="12" rx="2" ry="2" width="12" x="608" y="76" /><rect fill="#fdecc8" height="12" rx="2" ry="2" width="12" x="608" y="90" /><rect fill="#fdecc8" height="12" rx="2" ry="2" width="12" x="622" y="104" /><rect fill="#fdecc8" height="12" rx="2" ry="2" width="12" x="636" y="20" /><rect fill="#fdecc8" height="12" rx="2" ry="2" width="12" x="636" y="34" /><rect fill="#fdecc8" height="12" rx="2" ry="2" width="12" x="636" y="48" /><rect fill="#fdecc8" height="12" rx="2" ry="2" width="12" x="636" y="62" /><rect fill="#fdecc8" height="12" rx="2" ry="2" width="12" x="636" y="76" /><rect fill="#fdecc8" height="12" rx="2" ry="2" width="12" x="636" y="90" /><rect fill="#fbc98a" height="12" rx="2" ry="2" width="12" x="636" y="104" /><rect fill="#fbc98a" height="12" rx="2" ry="2" width="12" x="650" y="20" /><rect fill="#fbc98a" height="12" rx="2" ry="2" width="12" x="650" y="34" /><rect fill="#fdecc8" height="12" rx="2" ry="2" width="12" x="650" y="48" /><rect fill="#fdecc8" height="12" rx="2" ry="2" width="12" x="650" y="62" /><rect fill="#FFA116" height="12" rx="2" ry="2" width="12" x="650" y="76" /><rect fill="#fbc98a" height="12" rx="2" ry="2" width="12" x="650" y="90" /><rect fill="#fbc98a" height="12" rx="2" ry="2" width="12" x="650" y="104" /><rect fill="#fbc98a" height="12" rx="2" ry="2" width="12" x="664" y="20" /><rect fill="#fbc98a" height="12" rx="2" ry="2" width="12" x="664" y="34" /><rect fill="#fbc98a" height="12" rx="2" ry="2" width="12" x="664" y="48" /><rect fill="#fbc98a" height="12" rx="2" ry="2" width="12" x="664" y="62" /><rect fill="#FFA116" height="12" rx="2" ry="2" width="12" x="664" y="76" /><rect fill="#fbc98a" height="12" rx="2" ry="2" width="12" x="664" y="90" /><rect fill="#fdecc8" height="12" rx="2" ry="2" width="12" x="664" y="104" /><rect fill="#fdecc8" height="12" rx="2" ry="2" width="12" x="678" y="20" /><rect fill="#fdecc8" height="12" rx="2" ry="2" width="12" x="678" y="34" /><rect fill="#fdecc8" height="12" rx="2" ry="2" width="12" x="678" y="48" /><rect fill="#fdecc8" height="12" rx="2" ry="2" width="12" x="678" y="62" /><rect fill="#353839" height="12" rx="2" ry="2" width="12" x="678" y="76" /><rect fill="#353839" height="12" rx="2" ry="2" width="12" x="678" y="90" /><rect fill="#353839" height="12" rx="2" ry="2" width="12" x="678" y="104" /><rect fill="#353839" height="12" rx="2" ry="2" width="12" x="692" y="20" /><rect fill="#353839" height="12" rx="2" ry="2" width="12" x="692" y="34" /><rect fill="#353839" height="12" rx="2" ry="2" width="12" x="706" y="48" /><rect fill="#353839" height="12" rx="2" ry="2" width="12" x="706" y="62" /><rect fill="#353839" height="12" rx="2" ry="2" width="12" x="706" y="76" /><rect fill="#353839" height="12" rx="2" ry="2" width="12" x="706" y="90" /><rect fill="#353839" height="12" rx="2" ry="2" width="12" x="706" y="104" /><rect fill="#353839" height="12" rx="2" ry="2" width="12" x="720" y="20" /><rect fill="#fdecc8" height="12" rx="2" ry="2" width="12" x="720" y="34" /><rect fill="#353839" height="12" rx="2" ry="2" width="12" x="720" y="48" /><rect fill="#353839" height="12" rx="2" ry="2" width="12" x="720" y="62" /><rect fill="#353839" height="12" rx="2" ry="2" width="12" x="720" y="76" /><rect fill="#353839" height="12" rx="2" ry="2" width="12" x="720" y="90" /><rect fill="#353839" height="12" rx="2" ry="2" width="12" x="720" y="104" /><rect fill="#353839" height="12" rx="2" ry="2" width="12" x="734" y="20" /><rect fill="#fdecc8" height="12" rx="2" ry="2" width="12" x="734" y="34" /><rect fill="#353839" height="12" rx="2" ry="2" width="12" x="734" y="48" /><rect fill="#353839" height="12" rx="2" ry="2" width="12" x="734" y="62" /><rect fill="#fdecc8" height="12" rx="2" ry="2" width="12" x="734" y="76" /><rect fill="#353839" height="12" rx="2" ry="2" width="12" x="734" y="90" /><rect fill="#353839" height="12" rx="2" ry="2" width="12" x="734" y="104" /><rect fill="#353839" height="12" rx="2" ry="2" width="12" x="748" y="20" /><rect fill="#353839" height="12" rx="2" ry="2" width="12" x="748" y="34" /><rect fill="#353839" height="12" rx="2" ry="2" width="12" x="748" y="48" /><rect fill="#353839" height="12" rx="2" ry="2" width="12" x="748" y="62" /><rect fill="#353839" height="12" rx="2" ry="2" width="12" x="748" y="76" /><rect fill="#353839" height="12" rx="2" ry="2" width="12" x="748" y="90" /><rect fill="#353839" height="12" rx="2" ry="2" width="12" x="748" y="104" /><rect fill="#353839" height="12" rx="2" ry="2" width="12" x="762" y="20" /><rect fill="#353839" height="12" rx="2" ry="2" width="12" x="762" y="34" /><rect fill="#353839" height="12" rx="2" ry="2" width="12" x="762" y="48" /><rect fill="#353839" height="12" rx="2" ry="2" width="12" x="762" y="62" /><rect fill="#353839" height="12" rx="2" ry="2" width="12" x="776" y="76" /><rect fill="#353839" height="12" rx="2" ry="2" width="12" x="776" y="90" /><rect fill="#353839" height="12" rx="2" ry="2" width="12" x="776" y="104" /><rect fill="#353839" height="12" rx="2" ry="2" width="12" x="790" y="20" /><rect fill="#353839" height="12" rx="2" ry="2" width="12" x="790" y="34" /><rect fill="#353839" height="12" rx="2" ry="2" width="12" x="790" y="48" /><rect fill="#353839" height="12" rx="2" ry="2" width="12" x="790" y="62" /><rect fill="#353839" height="12" rx="2" ry="2" width="12" x="790" y="76" /><rect fill="#353839" height="12" rx="2" ry="2" width="12" x="790" y="90" /><rect fill="#353839" height="12" rx="2" ry="2" width="12" x="790" y="104" /><rect fill="#353839" height="12" rx="2" ry="2" width="12" x="804" y="20" /><rect fill="#353839" height="12" rx="2" ry="2" width="12" x="804" y="34" /><rect fill="#353839" height="12" rx="2" ry="2" width="12" x="804" y="48" /><rect fill="#353839" height="12" rx="2" ry="2" width="12" x="804" y="62" /><rect fill="#353839" height="12" rx="2" ry="2" width="12" x="804" y="76" /><rect fill="#353839" height="12" rx="2" ry="2" width="12" x="804" y="90" /><rect fill="#353839" height="12" rx="2" ry="2" width="12" x="804" y="104" /><rect fill="#353839" height="12" rx="2" ry="2" width="12" x="818" y="20" /><rect fill="#353839" height="12" rx="2" ry="2" width="12" x="818" y="34" /><rect fill="#353839" height="12" rx="2" ry="2" width="12" x="818" y="48" /><rect fill="#353839" height="12" rx="2" ry="2" width="12" x="818" y="62" /><rect fill="#353839" height="12" rx="2" ry="2" width="12" x="818" y="76" /><rect fill="#353839" height="12" rx="2" ry="2" width="12" x="818" y="90" /><rect fill="#353839" height="12" rx="2" ry="2" width="12" x="818" y="104" /><rect fill="#353839" height="12" rx="2" ry="2" width="12" x="832" y="20" /><rect fill="#353839" height="12" rx="2" ry="2" width="12" x="832" y="34" /><rect fill="#353839" height="12" rx="2" ry="2" width="12" x="832" y="48" /><rect fill="#353839" height="12" rx="2" ry="2" width="12" x="832" y="62" /><rect fill="#353839" height="12" rx="2" ry="2" width="12" x="832" y="76" /><rect fill="#353839" height="12" rx="2" ry="2" width="12" x="832" y="90" /><rect fill="#353839" height="12" rx="2" ry="2" width="12" x="832" y="104" /><rect fill="#353839" height="12" rx="2" ry="2" width="12" x="860" y="20" /><rect fill="#353839" height="12" rx="2" ry="2" width="12" x="860" y="34" /><rect fill="#353839" height="12" rx="2" ry="2" width="12" x="860" y="48" /><rect fill="#353839" height="12" rx="2" ry="2" width="12" x="860" y="62" /><rect fill="#353839" height="12" rx="2" ry="2" width="12" x="860" y="76" /><rect fill="#353839" height="12" rx="2" ry="2" width="12" x="860" y="90" /><rect fill="#353839" height="12" rx="2" ry="2" width="12" x="860" y="104" /><rect fill="#353839" height="12" rx="2" ry="2" width="12" x="874" y="20" /><rect fill="#353839" height="12" rx="2" ry="2" width="12" x="874" y="34" /><rect fill="#353839" height="12" rx="2" ry="2" width="12" x="874" y="48" /><rect fill="#353839" height="12" rx="2" ry="2" width="12" x="874" y="62" /><rect fill="#353839" height="12" rx="2" ry="2" width="12" x="874" y="76" /><rect fill="#353839" height="12" rx="2" ry="2" width="12" x="874" y="90" /><rect fill="#353839" height="12" rx="2" ry="2" width="12" x="874" y="104" /><rect fill="#353839" height="12" rx="2" ry="2" width="12" x="888" y="20" /><rect fill="#353839" height="12" rx="2" ry="2" width="12" x="888" y="34" /><rect fill="#353839" height="12" rx="2" ry="2" width="12" x="888" y="48" /><rect fill="#353839" height="12" rx="2" ry="2" width="12" x="888" y="62" /><rect fill="#fdecc8" height="12" rx="2" ry="2" width="12" x="888" y="76" /><rect fill="#353839" height="12" rx="2" ry="2" width="12" x="888" y="90" /><rect fill="#353839" height="12" rx="2" ry="2" width="12" x="888" y="104" /><rect fill="#353839" height="12" rx="2" ry="2" width="12" x="902" y="20" /><rect fill="#353839" height="12" rx="2" ry="2" width="12" x="902" y="34" /><rect fill="#353839" height="12" rx="2" ry="2" width="12" x="902" y="48" /><rect fill="#353839" height="12" rx="2" ry="2" width="12" x="902" y="62" /><rect fill="#353839" height="12" rx="2" ry="2" width="12" x="902" y="76" /><rect fill="#fdecc8" height="12" rx="2" ry="2" width="12" x="902" y="90" /><rect fill="#fdecc8" height="12" rx="2" ry="2" width="12" x="902" y="104" /><rect fill="#fdecc8" height="12" rx="2" ry="2" width="12" x="916" y="20" /><rect fill="#fbc98a" height="12" rx="2" ry="2" width="12" x="916" y="34" /></svg>